<mxfile host="Electron" modified="2024-12-01T13:59:50.481Z" agent="Mozilla/5.0 (Windows NT 10.0; Win64; x64) AppleWebKit/537.36 (KHTML, like Gecko) draw.io/23.1.5 Chrome/120.0.6099.109 Electron/28.1.0 Safari/537.36" etag="7nDdSq2AiN1pwnECBcdy" version="23.1.5" type="device">
  <diagram name="Page-1" id="jGECZI9j6-vsPwKyiqkw">
    <mxGraphModel dx="1100" dy="650" grid="1" gridSize="10" guides="1" tooltips="1" connect="1" arrows="1" fold="1" page="1" pageScale="1" pageWidth="1100" pageHeight="850" math="0" shadow="0">
      <root>
        <mxCell id="0" />
        <mxCell id="1" parent="0" />
        <mxCell id="UVgXjKEeowFTBTym29r3-2" value="" style="rounded=0;whiteSpace=wrap;html=1;fillColor=#f5f5f5;fontColor=#db1414;strokeColor=#666666;" parent="1" vertex="1">
          <mxGeometry x="199" y="1" width="600" height="850" as="geometry" />
        </mxCell>
        <mxCell id="UVgXjKEeowFTBTym29r3-9" value="" style="rounded=0;whiteSpace=wrap;html=1;fillColor=default;gradientColor=#b3b3b3;strokeColor=#666666;rotation=-180;fontColor=#db1414;" parent="1" vertex="1">
          <mxGeometry x="218" y="20" width="559" height="810" as="geometry" />
        </mxCell>
        <mxCell id="UVgXjKEeowFTBTym29r3-3" value="&lt;h2 style=&quot;margin: 0px 0px 10px; padding: 0px; box-sizing: border-box; animation: 1.5s ease-out 0s 1 normal none running fadeInDown; font-family: Arial, sans-serif;&quot;&gt;&lt;font style=&quot;font-size: 30px;&quot; color=&quot;#000000&quot;&gt;Easy Mart&lt;/font&gt;&lt;/h2&gt;&lt;div style=&quot;font-size: 16px;&quot;&gt;&lt;font color=&quot;#030000&quot;&gt;&lt;b&gt;General Store Management System&lt;/b&gt;&lt;/font&gt;&lt;font style=&quot;font-size: 16px;&quot; color=&quot;#000000&quot;&gt;&lt;br&gt;&lt;/font&gt;&lt;/div&gt;" style="rounded=1;whiteSpace=wrap;html=1;fillColor=#ffffff;fontColor=#db1414;" parent="1" vertex="1">
          <mxGeometry x="380" y="40" width="380" height="110" as="geometry" />
        </mxCell>
        <mxCell id="UVgXjKEeowFTBTym29r3-4" value="" style="rounded=1;whiteSpace=wrap;html=1;fillColor=#ffffff;arcSize=13;fontColor=#db1414;" parent="1" vertex="1">
          <mxGeometry x="240" y="40" width="130" height="110" as="geometry" />
        </mxCell>
        <mxCell id="UVgXjKEeowFTBTym29r3-5" value="" style="rounded=1;whiteSpace=wrap;html=1;fillColor=#ffffff;arcSize=8;fontColor=#db1414;strokeColor=#000000;" parent="1" vertex="1">
          <mxGeometry x="240" y="489" width="260" height="320" as="geometry" />
        </mxCell>
        <mxCell id="UVgXjKEeowFTBTym29r3-6" value="" style="rounded=1;whiteSpace=wrap;html=1;fillColor=#ffffff;arcSize=10;fontColor=#db1414;strokeColor=#000000;" parent="1" vertex="1">
          <mxGeometry x="530" y="659" width="230" height="150" as="geometry" />
        </mxCell>
        <mxCell id="UVgXjKEeowFTBTym29r3-7" value="" style="rounded=1;whiteSpace=wrap;html=1;fillColor=#ffffff;arcSize=10;fontColor=#db1414;strokeColor=#000000;" parent="1" vertex="1">
          <mxGeometry x="530" y="490" width="230" height="150" as="geometry" />
        </mxCell>
        <mxCell id="UVgXjKEeowFTBTym29r3-8" value="" style="rounded=1;whiteSpace=wrap;html=1;fillColor=#ffffff;arcSize=12;fontColor=#db1414;" parent="1" vertex="1">
          <mxGeometry x="240" y="166" width="520" height="304" as="geometry" />
        </mxCell>
        <mxCell id="nU68OEOaqPRt9e0koQk9-1" value="&lt;h1 style=&quot;text-align: center; font-size: 20px;&quot;&gt;&lt;font style=&quot;font-size: 20px;&quot;&gt;Counter Manager&amp;nbsp;&lt;/font&gt;&lt;/h1&gt;&lt;p style=&quot;font-size: 20px;&quot;&gt;&lt;/p&gt;&lt;ul style=&quot;&quot;&gt;&lt;li style=&quot;&quot;&gt;&lt;b&gt;Generate Bill Receipts:&amp;nbsp; &lt;/b&gt;generate receipts by entering the product code and quantity and&amp;nbsp; send e-receipts on the email or produce physical printed receipts.&lt;br&gt;&lt;/li&gt;&lt;li style=&quot;&quot;&gt;&lt;b&gt;Return Products:&amp;nbsp;&lt;/b&gt;entering the product code, quantity, and the corresponding receipt code of bought products and&amp;nbsp; send e-receipts on&amp;nbsp;the email or produce physical printed receipts.&lt;/li&gt;&lt;li style=&quot;&quot;&gt;&lt;b&gt;Manage Profile:&amp;nbsp;&lt;/b&gt;view their personal details&amp;nbsp; and change passwords.&lt;/li&gt;&lt;/ul&gt;&lt;p&gt;&lt;/p&gt;" style="text;html=1;spacing=5;spacingTop=-20;whiteSpace=wrap;overflow=hidden;rounded=0;fontColor=#000000;" vertex="1" parent="1">
          <mxGeometry x="218" y="180" width="220" height="270" as="geometry" />
        </mxCell>
        <mxCell id="nU68OEOaqPRt9e0koQk9-2" value="&lt;h1 style=&quot;font-size: 20px;&quot;&gt;&lt;font style=&quot;font-size: 20px;&quot;&gt;Inventory Manager&lt;/font&gt;&lt;/h1&gt;&lt;p style=&quot;font-size: 20px;&quot;&gt;&lt;/p&gt;&lt;ul style=&quot;&quot;&gt;&lt;li&gt;&lt;b&gt;Inventory Control:&amp;nbsp;&lt;/b&gt;add, delete, edit, update, search, sort and export inventory products to an Excel sheet.&amp;nbsp;&lt;/li&gt;&lt;li style=&quot;&quot;&gt;&lt;b&gt;Manage profile:&amp;nbsp;&lt;/b&gt;view their personal details&amp;nbsp; and change passwords.&lt;/li&gt;&lt;/ul&gt;&lt;p&gt;&lt;/p&gt;" style="text;html=1;spacing=5;spacingTop=-20;whiteSpace=wrap;overflow=hidden;rounded=0;fontColor=#000000;align=left;" vertex="1" parent="1">
          <mxGeometry x="410" y="180" width="190" height="270" as="geometry" />
        </mxCell>
        <mxCell id="nU68OEOaqPRt9e0koQk9-3" value="&lt;h1 style=&quot;text-align: center; font-size: 20px;&quot;&gt;&lt;font style=&quot;font-size: 20px;&quot;&gt;Administration Manager&lt;/font&gt;&lt;/h1&gt;&lt;p style=&quot;font-size: 20px;&quot;&gt;&lt;/p&gt;&lt;ul style=&quot;&quot;&gt;&lt;li&gt;&lt;b&gt;Login Options:&amp;nbsp;&lt;/b&gt;Managers can also log in as a counter manager or inventory also.&lt;/li&gt;&lt;li style=&quot;&quot;&gt;&amp;nbsp;&lt;b&gt;Sales Reports:&lt;/b&gt;&lt;br&gt;Managers can view sales reports&lt;/li&gt;&lt;li style=&quot;&quot;&gt;&lt;b&gt;Employee Management:&amp;nbsp; &amp;nbsp;&lt;/b&gt;view update personal information of employs and add or remove &lt;br&gt;employees&lt;/li&gt;&lt;/ul&gt;&lt;p&gt;&lt;/p&gt;" style="text;html=1;spacing=5;spacingTop=-20;whiteSpace=wrap;overflow=hidden;rounded=0;fontColor=#000000;" vertex="1" parent="1">
          <mxGeometry x="570" y="180" width="190" height="270" as="geometry" />
        </mxCell>
      </root>
    </mxGraphModel>
  </diagram>
</mxfile>
